# xmcd
#
# Track frame offsets:
#	150
#	12487
#	27397
#
# Disc length: 571 seconds
#
# Revision: 0
# Processed by: cddbd v1.5.2PL0 Copyright (c) Steve Scherf et al.
# Submitted via: EasyCDDAExtractor 2010.6.0.0
#
DISCID=1d023903
DTITLE=Linoleum - Marquis [CD1)
DYEAR=1997
DGENRE=AlternRock
TTITLE0=Marquis
TTITLE1=Flawed
TTITLE2=Shine Brightly
EXTD=
EXTT0=
EXTT1=
EXTT2=
PLAYORDER=
